<svg xmlns="http://www.w3.org/2000/svg" width="107" height="48" fill="none"><path fill="#000" fill-rule="evenodd" d="M65.724 16.12a2.696 2.696 0 1 0 0-5.392 2.696 2.696 0 0 0 0 5.391Zm2.054 1.925H63.67v17.843h4.108V18.045Zm-49.422 8.857-.001.166v8.82h-4.236v-1.195a9.09 9.09 0 0 1-4.94 1.451C4.108 36.144 0 32.007 0 26.902c0-5.104 4.11-9.242 9.178-9.242 5.07 0 9.178 4.138 9.178 9.242Zm-9.178 5.263c2.872 0 5.2-2.357 5.2-5.263 0-2.907-2.328-5.263-5.2-5.263-2.87 0-5.198 2.356-5.198 5.263 0 2.906 2.327 5.263 5.198 5.263Zm70.214 3.98c5.07 0 9.178-4.139 9.178-9.243s-4.109-9.242-9.178-9.242c-5.069 0-9.178 4.138-9.178 9.242 0 5.105 4.11 9.242 9.178 9.242Zm0-3.98c2.872 0 5.2-2.356 5.2-5.263s-2.328-5.263-5.2-5.263c-2.87 0-5.198 2.357-5.198 5.263 0 2.907 2.328 5.263 5.199 5.263ZM20.026 29.92h3.787c0 1.348 1.027 2.439 2.567 2.439 1.22 0 2.182-.899 2.182-2.568 0-1.431-1.595-1.8-2.886-2.098-.387-.09-.747-.173-1.029-.276-1.22-.45-3.466-1.605-3.466-4.622 0-3.016 1.926-5.07 5.07-5.07 2.517 0 3.873 1.455 4.237 2.246l-2.375 2.375c-.32-.642-.77-1.155-1.733-1.155-.513 0-1.412.32-1.412 1.476 0 1.035.644 1.238 2.338 1.77.512.16 1.12.352 1.834.605 3.08 1.09 3.273 3.98 3.273 5.263s-.192 5.84-6.161 5.84c-4.776 0-6.226-3.594-6.226-6.225Zm13.734-11.874h4.3v10.847c0 .577.193 3.53 3.595 3.53 3.401 0 4.172-2.632 4.172-3.53V18.045h3.979V30.11l-.001.002v5.774h-4.108v-1.4c-1.294.925-2.844 1.593-4.684 1.593-4.364 0-7.253-3.145-7.253-7.188V18.045Zm23.107 1.343c1.266-.961 2.76-1.675 4.49-1.725v3.921a5.515 5.515 0 0 0-.32-.009c-3.4 0-4.3 2.632-4.3 3.53v10.847h-3.979V23.886l.001-.002V18.11h4.108v1.28Zm33.502 6.487a8.215 8.215 0 1 1 16.431 0v10.013h-3.979V25.875a4.236 4.236 0 0 0-8.472 0v10.013h-3.98V25.875Z" clip-rule="evenodd"/></svg>