<svg width="81" height="81" viewBox="0 0 81 81" fill="none" xmlns="http://www.w3.org/2000/svg">
<path d="M0.69342 4.67322C0.69342 2.46408 2.48428 0.673218 4.69342 0.673218H76.6934C78.9026 0.673218 80.6934 2.46408 80.6934 4.67322V76.6732C80.6934 78.8824 78.9026 80.6732 76.6934 80.6732H4.69342C2.48428 80.6732 0.69342 78.8824 0.69342 76.6732V4.67322Z" fill="#F4F502"/>
<path d="M74.0268 40.6732C74.0268 59.0827 59.1029 74.0065 40.6934 74.0065C22.2839 74.0065 7.36011 59.0827 7.36011 40.6732C7.36011 22.2637 22.2839 7.33984 40.6934 7.33984C59.1029 7.33984 74.0268 22.2637 74.0268 40.6732Z" fill="#F4F502"/>
<path d="M42.0267 39.0066C42.0267 36.8588 43.7678 35.1177 45.9156 35.1177V35.1177C48.0634 35.1177 49.8045 36.8588 49.8045 39.0066V60.1177C49.8045 62.2655 48.0634 64.0066 45.9156 64.0066V64.0066C43.7678 64.0066 42.0267 62.2654 42.0267 60.1177V39.0066Z" fill="#FE403F"/>
<path d="M29.5823 47.8983C29.5823 45.7498 31.324 44.0066 33.4725 44.0066V44.0066C35.621 44.0066 37.3627 45.7483 37.3627 47.8968V69.2316C37.3627 71.3801 35.621 73.1218 33.4725 73.1218V73.1218C31.324 73.1218 29.5823 71.3786 29.5823 69.2301C29.5823 61.388 29.5823 55.7404 29.5823 47.8983Z" fill="#FE403F"/>
<path d="M32.7933 73.0807C34.5653 73.461 35.5587 73.6274 37.3221 73.8301L37.3481 69.5673L32.7933 73.0807Z" fill="#FE403F"/>
<path d="M29.5917 72.1009V69.5585L32.167 72.8971C31.1707 72.6549 29.5913 72.1296 29.5917 72.1009Z" fill="#FE403F"/>
<path d="M54.4712 30.1176C54.4712 27.9699 56.2123 26.2288 58.3601 26.2288V26.2288C60.5079 26.2288 62.249 27.9699 62.249 30.1176V51.2288C62.249 53.3765 60.5079 55.1176 58.3601 55.1176V55.1176C56.2123 55.1176 54.4712 53.3765 54.4712 51.2288V30.1176Z" fill="#FE403F"/>
</svg>
