<svg xmlns="http://www.w3.org/2000/svg" width="202.667" height="194.667" version="1.0" viewBox="0 0 152 146"><g fill="#00509f"><path d="M74.4 12.3c-2.2 1.3-12.1 7.6-22.6 14.4-3.7 2.3-7 4.3-7.2 4.3-1.3 0-28.4 17.6-30.3 19.7-4.4 4.7-2.4 8.8 6.4 13.9 2.7 1.5 7.4 4.5 10.5 6.6 3.1 2.1 6 3.8 6.3 3.8.4 0 2.5 1.3 4.8 2.9 4 2.7 14.9 9.4 21.2 13.1 1.7.9 5.4 3.2 8.3 5l5.3 3.3 3.7-2c2-1.1 7.5-4.4 12.2-7.3 4.7-2.9 14.4-8.9 21.5-13.3 7.2-4.4 15.4-9.5 18.4-11.3 8-5 9.1-6.2 9.1-10.5s2.1-2.5-21-17.4c-3.8-2.5-7.2-4.5-7.6-4.5-.3 0-2.4-1.3-4.7-2.9-2.3-1.5-7.1-4.6-10.7-6.8-3.6-2.2-9.5-5.9-13.2-8.1-7.3-4.5-7.3-4.5-10.4-2.9zm42.2 36.2c-.1.5-2.5 1-5.1 1-4.9 0-5-.1-9.2-6-2.3-3.3-4.2-6.6-4.3-7.3 0-.6 4.3 1.6 9.5 5 5.2 3.5 9.3 6.7 9.1 7.3zM56.4 37.2c-.4.7-2.5 3.9-4.6 7C48 50 47.9 50 43 50c-5.8 0-6.6-1.6-2.1-4.3 1.6-.9 5.3-3.5 8.2-5.7 5.3-3.9 8.8-5.3 7.3-2.8zm15.4 5.5-.3 6.8-4.7.3c-3.4.2-4.8-.1-4.8-1 0-1.7 7.9-12.8 9.1-12.8.6 0 .9 2.9.7 6.7zM89 42c4.7 6.5 4.5 7.5-1 7.5h-4.5l-.3-6.3c-.4-7.7.9-8 5.8-1.2zM51.4 65.9c7.2 9.3 6 10.1-4.4 3.1-10.8-7.3-11.4-8.7-3.3-8.9 2.7-.1 3.8.7 7.7 5.8zm18.4-5.3c2 .6 2.2 1.2 2.2 7 0 3.5-.4 6.4-.9 6.4-1.7 0-9.3-10.9-8.7-12.5.6-1.6 3.5-1.9 7.4-.9zm22.1.3c1.1.7.9 1.7-1.5 5.5-1.6 2.5-3.2 4.6-3.6 4.6-.5 0-.8.7-.8 1.6 0 .9-.6 1.4-1.2 1.2-1.7-.6-2.3-10.5-.7-12.4 1.3-1.6 5.7-1.8 7.8-.5zm24.1.1c.8.5 1.2 1.1 1 1.3-.3.2-2.7 1.9-5.5 3.8-2.7 1.9-5.2 3.6-5.5 3.9-1.4 1.6-7.2 5.2-7.6 4.7-.6-.5 1.7-5.7 2.5-5.7.4 0 1.7-1.8 3.1-4 1.3-2.2 3.1-4.1 4-4.4 2.8-.7 6.5-.6 8 .4z"/><path d="M13.7 70.8C12.2 72.4 12 76 12 100.2v27.5l2.6 2.7 2.7 2.6h120.4l2.1-2.3c2.2-2.3 2.2-2.7 2-31.2-.3-25-.5-28.9-1.9-29.8-1.2-.7-4 .5-12 5.5-5.7 3.6-14 8.7-18.4 11.3-4.4 2.6-9.8 6-12 7.6-2.3 1.5-7.3 4.4-11.3 6.4C76.3 105.7 76 105.6 51 90c-4.7-2.9-10.5-6.5-13-8s-8.2-5-12.8-7.9c-4.6-2.8-8.7-5.1-9.1-5.1-.4 0-1.5.8-2.4 1.8zm20 22.8c2.6 1.5 8 4.5 11.8 6.8 21.5 12.5 25 14.1 32 14.1 6.7 0 11.8-2.3 33-14.7 12-7.1 15.8-8.9 17.1-8.4 1.1.4 1.4 3.5 1.4 13.8 0 7.3-.4 13.9-.8 14.6-.7 1-11.6 1.2-51.3 1l-50.4-.3-.3-14.8c-.3-16.7-.5-16.5 7.5-12.1z"/></g></svg>