<svg xmlns="http://www.w3.org/2000/svg" viewBox="0 0 245 39"><path fill="#3C50DC" d="m35.31 35.17-1.74-4.51a18.86 18.86 0 1 0-6.9 5.37l6.17 1.82a2 2 0 0 0 1.96-.45l.14-.13a2 2 0 0 0 .37-2.1Zm-4-6.38c-.22.28-.46.56-.7.83l-.4.43 1.63 4.46-5.44-1.62-.34.17a16 16 0 1 1 5.25-4.27Z"/><path fill="#3C50DC" d="M18.85 8.95a9.8 9.8 0 0 0-4.23 1 9.87 9.87 0 0 0-5.66 8.2v.13a6 6 0 0 0 0 .61v.06a9.91 9.91 0 0 0 19.8.61v-.72a9.92 9.92 0 0 0-9.9-9.89Zm6.11 10a6.1 6.1 0 0 1-.99 3.31l-.18.26c-.15.21-.32.41-.5.6l-.2.22c-.51.5-1.1.9-1.75 1.18l-.3.11c-.24.1-.5.18-.76.24l-.32.08a6.08 6.08 0 0 1-6.7-3.54c0-.1-.08-.2-.1-.3-.1-.25-.18-.5-.24-.74l-.06-.26a6.24 6.24 0 0 1 .37-3.53c.14-.32.3-.63.5-.93l.18-.26c.16-.2.32-.4.5-.6l.21-.22a5.23 5.23 0 0 1 1.75-1.18l.3-.11c.24-.1.5-.18.75-.24l.32-.07a5.8 5.8 0 0 1 2.51.06h.17c-.25.11-.49.27-.69.46a2.59 2.59 0 1 0 4.3 2.21 6.25 6.25 0 0 1 .93 3.25Z"/></svg>